<svg xmlns="http://www.w3.org/2000/svg" viewBox="0 0 96 96">
  <defs>
    <filter id="n">
      <feTurbulence type="fractalNoise" baseFrequency=".11" numOctaves="4" seed="43"/>
      <feColorMatrix type="saturate" values=".42"/>
      <feBlend in="SourceGraphic" mode="multiply"/>
    </filter>
  </defs>
  <rect width="96" height="96" fill="#8c7655"/>
  <path d="M-8 80 C12 42 33 23 56 24 C77 25 91 45 104 77" fill="#a0875f"/>
  <path d="M8 75 C25 49 43 36 58 37 C72 38 84 51 92 73" fill="none" stroke="#5e4b34" stroke-width="4" opacity=".48"/>
  <path d="M17 64 C31 48 43 43 57 44 C70 45 79 56 84 68" fill="none" stroke="#5e4b34" stroke-width="3" opacity=".42"/>
  <path d="M27 55 C41 48 54 48 68 57" fill="none" stroke="#e0c995" stroke-width="3" opacity=".42"/>
  <path d="M7 21 C26 13 43 20 60 12 S84 8 101 18" fill="none" stroke="#6e5a3f" stroke-width="5" opacity=".28"/>
  <rect width="96" height="96" fill="#9b805a" opacity=".4" filter="url(#n)"/>
</svg>
