<svg xmlns="http://www.w3.org/2000/svg" viewBox="0 0 96 96">
  <defs>
    <filter id="n">
      <feTurbulence type="fractalNoise" baseFrequency=".09" numOctaves="3" seed="23"/>
      <feColorMatrix type="saturate" values=".5"/>
      <feBlend in="SourceGraphic" mode="multiply"/>
    </filter>
  </defs>
  <rect width="96" height="96" fill="#d8c682"/>
  <path d="M0 0 H96 V34 C77 26 65 33 50 26 C33 18 18 18 0 27 Z" fill="#4e8292"/>
  <path d="M0 34 C19 24 33 28 50 34 C69 42 79 36 96 43 V55 C77 49 63 56 45 48 C29 41 14 44 0 53 Z" fill="#e5d99c"/>
  <path d="M0 43 C18 33 33 39 49 45 C67 52 80 47 96 51" fill="none" stroke="#fff4c7" stroke-width="5" opacity=".6"/>
  <path d="M8 73 L31 68 M44 80 L75 74 M55 61 L89 58" stroke="#8e7f50" stroke-width="2" opacity=".45"/>
  <rect width="96" height="96" fill="#d8c682" opacity=".25" filter="url(#n)"/>
</svg>
